<svg width="24" height="24" viewBox="0 0 24 24" fill="none" xmlns="http://www.w3.org/2000/svg">
<path d="M22.3333 9.15217C22.3333 10.1365 21.4729 10.9783 20.4667 10.9783H16.3062C16.987 11.6886 17.0706 13.0518 16.0437 13.9343C16.6391 14.8855 16.1332 16.1433 15.3583 16.5307C15.7323 18.5783 14.4439 19.5 12.3333 19.5C12.2189 19.5 11.7802 19.4915 11.6667 19.4919C9.08454 19.4989 8.46275 18.1975 6.51121 17.8954C6.02483 17.8201 5.66667 17.4 5.66667 16.9078V9.76088L5.66675 9.76083C5.66721 8.99558 6.10871 8.26546 6.85275 7.93396C8.05633 7.39254 10.8283 5.89071 11.3333 4.71217C11.6582 3.95408 12.2243 3.50033 13 3.5C14.4259 3.49942 15.4063 4.96242 14.8383 6.28783C14.689 6.63613 14.492 6.98242 14.2486 7.32608H20.4667C21.4438 7.32608 22.3333 8.18204 22.3333 9.15217ZM5 9.16667V17.1667C5 17.719 4.55229 18.1667 4 18.1667H2C1.44771 18.1667 1 17.719 1 17.1667V9.16667C1 8.61438 1.44771 8.16667 2 8.16667H4C4.55229 8.16667 5 8.61438 5 9.16667ZM3.83333 16.1667C3.83333 15.7064 3.46025 15.3333 3 15.3333C2.53975 15.3333 2.16667 15.7064 2.16667 16.1667C2.16667 16.6269 2.53975 17 3 17C3.46025 17 3.83333 16.6269 3.83333 16.1667Z" fill="white"/>
</svg>
